<svg width="190" height="156" viewBox="0 0 190 156" fill="none" xmlns="http://www.w3.org/2000/svg">
<path d="M136.195 78.6744L90.31 116.348C87.6357 118.543 85.7378 121.293 84.819 124.304L81.2565 135.989C80.9052 137.151 80.9259 138.368 81.3167 139.521C81.7075 140.675 82.455 141.726 83.4867 142.572C84.5183 143.419 85.7991 144.031 87.2044 144.351C88.6098 144.671 90.092 144.687 91.507 144.397L105.738 141.48C109.406 140.727 112.756 139.168 115.428 136.972L161.313 99.2976C164.601 96.5545 166.436 92.8555 166.417 89.0067C166.398 85.1578 164.527 81.4711 161.211 78.7501C157.896 76.029 153.405 74.4942 148.717 74.48C144.03 74.4658 139.525 75.9735 136.186 78.6744M52.5 15.9C52.5 14.8657 51.9996 13.8737 51.1088 13.1423C50.218 12.4109 49.0098 12 47.75 12C46.4902 12 45.282 12.4109 44.3912 13.1423C43.5004 13.8737 43 14.8657 43 15.9V19.8H38.25C34.4707 19.8 30.8461 21.0327 28.1737 23.2269C25.5013 25.421 24 28.397 24 31.5V125.1C24 128.203 25.5013 131.179 28.1737 133.373C30.8461 135.567 34.4707 136.8 38.25 136.8H71.5285C71.595 135.911 71.766 135.006 72.0415 134.093L75.604 122.409C76.9338 118.025 79.6925 114.021 83.584 110.826L129.469 73.152C131.917 71.1375 134.813 69.5275 138 68.4096V31.5C138 28.397 136.499 25.421 133.826 23.2269C131.154 21.0327 127.529 19.8 123.75 19.8H119V15.9C119 14.8657 118.5 13.8737 117.609 13.1423C116.718 12.4109 115.51 12 114.25 12C112.99 12 111.782 12.4109 110.891 13.1423C110 13.8737 109.5 14.8657 109.5 15.9V19.8H85.75V15.9C85.75 14.8657 85.2496 13.8737 84.3588 13.1423C83.468 12.4109 82.2598 12 81 12C79.7402 12 78.532 12.4109 77.6412 13.1423C76.7504 13.8737 76.25 14.8657 76.25 15.9V19.8H52.5V15.9ZM57.25 51H104.75C106.01 51 107.218 51.4109 108.109 52.1423C109 52.8737 109.5 53.8657 109.5 54.9C109.5 55.9343 109 56.9263 108.109 57.6577C107.218 58.3891 106.01 58.8 104.75 58.8H57.25C55.9902 58.8 54.782 58.3891 53.8912 57.6577C53.0004 56.9263 52.5 55.9343 52.5 54.9C52.5 53.8657 53.0004 52.8737 53.8912 52.1423C54.782 51.4109 55.9902 51 57.25 51ZM109.5 78.3C109.5 79.3343 109 80.3263 108.109 81.0577C107.218 81.7891 106.01 82.2 104.75 82.2H57.25C55.9902 82.2 54.782 81.7891 53.8912 81.0577C53.0004 80.3263 52.5 79.3343 52.5 78.3C52.5 77.2657 53.0004 76.2737 53.8912 75.5423C54.782 74.8109 55.9902 74.4 57.25 74.4H104.75C106.01 74.4 107.218 74.8109 108.109 75.5423C109 76.2737 109.5 77.2657 109.5 78.3ZM57.25 97.8H76.25C77.5098 97.8 78.718 98.2109 79.6088 98.9423C80.4996 99.6737 81 100.666 81 101.7C81 102.734 80.4996 103.726 79.6088 104.458C78.718 105.189 77.5098 105.6 76.25 105.6H57.25C55.9902 105.6 54.782 105.189 53.8912 104.458C53.0004 103.726 52.5 102.734 52.5 101.7C52.5 100.666 53.0004 99.6737 53.8912 98.9423C54.782 98.2109 55.9902 97.8 57.25 97.8Z" fill="#E4A951"/>
</svg>
