<svg width="248" height="58" viewBox="0 0 248 58" fill="none" xmlns="http://www.w3.org/2000/svg">
<path fill-rule="evenodd" clip-rule="evenodd" d="M184.5 12C184.742 12.0001 184.98 12.0662 185.184 12.1903C185.388 12.3145 185.551 12.4917 185.653 12.7008L194.294 30.4271C196.294 29.8802 198.437 30.0708 200.295 30.9608C202.153 31.8507 203.589 33.3746 204.317 35.2278C205.044 37.081 205.01 39.127 204.22 40.9571C203.43 42.7871 201.943 44.2664 200.056 45.0992C198.169 45.9321 196.021 46.0572 194.041 45.4496C192.061 44.842 190.395 43.5464 189.376 41.8217C188.357 40.097 188.06 38.0702 188.545 36.1464C189.029 34.2226 190.259 32.5435 191.989 31.4445L183.687 14.4167H178.146V12H184.5ZM193.627 34.8097C192.827 35.4825 192.307 36.4067 192.165 37.4135C192.022 38.4203 192.265 39.4423 192.85 40.2926C193.434 41.1429 194.321 41.7648 195.348 42.0444C196.376 42.3241 197.474 42.2428 198.444 41.8155C199.413 41.3882 200.188 40.6434 200.627 39.7174C201.067 38.7913 201.141 37.7459 200.836 36.7722C200.531 35.7985 199.868 34.9617 198.967 34.4147C198.067 33.8678 196.99 33.6473 195.932 33.7935L197.726 37.4705C197.858 37.7598 197.867 38.087 197.749 38.3821C197.631 38.6772 197.396 38.9168 197.095 39.0496C196.794 39.1823 196.45 39.1978 196.137 39.0926C195.824 38.9874 195.567 38.7699 195.42 38.4867L193.627 34.8097ZM170.424 39.1875C170.099 41.1385 169.014 42.9016 167.383 44.1255C165.752 45.3495 163.697 45.9446 161.625 45.7922C159.554 45.6398 157.619 44.7512 156.206 43.3033C154.793 41.8554 154.005 39.9545 154 37.9792C153.997 35.9991 154.781 34.0911 156.194 32.6371C157.608 31.1831 159.547 30.2903 161.623 30.1376C163.699 29.9848 165.76 30.5833 167.392 31.8133C169.024 33.0433 170.107 34.8139 170.424 36.7708H174.333V34.9583C174.333 34.3174 174.601 33.7027 175.078 33.2495C175.554 32.7963 176.201 32.5417 176.875 32.5417H184.5V37.375C184.5 38.0159 184.232 38.6306 183.756 39.0838C183.279 39.5371 182.632 39.7917 181.958 39.7917H176.875C176.222 39.7917 175.626 39.5572 175.175 39.1718C175.107 39.1823 175.038 39.1875 174.969 39.1875H170.424ZM162.26 42.2083C161.436 42.2081 160.627 41.9898 159.925 41.5779C159.223 41.1659 158.656 40.5764 158.286 39.8754C157.916 39.1744 157.758 38.3894 157.831 37.6081C157.903 36.8268 158.203 36.0801 158.696 35.4513C159.189 34.8225 159.856 34.3365 160.623 34.0475C161.39 33.7586 162.226 33.678 163.038 33.8149C163.85 33.9518 164.606 34.3008 165.222 34.8228C165.838 35.3448 166.288 36.0192 166.524 36.7708H162.26C161.923 36.7708 161.6 36.8981 161.362 37.1247C161.123 37.3514 160.99 37.6587 160.99 37.9792C160.99 38.2996 161.123 38.607 161.362 38.8336C161.6 39.0602 161.923 39.1875 162.26 39.1875H166.524C166.25 40.0603 165.687 40.8256 164.919 41.3699C164.151 41.9141 163.218 42.2082 162.26 42.2083Z" fill="black"/>
<path d="M185.262 29.3243L186.533 26.9076C186.71 26.5722 186.801 26.2024 186.801 25.8274C186.801 25.4524 186.71 25.0826 186.533 24.7471L185.262 22.3305C185.051 21.9287 184.727 21.5909 184.325 21.3548C183.923 21.1188 183.46 20.9939 182.988 20.9941H178.819C177.712 20.9942 176.611 21.1664 175.562 21.504L171.565 22.7884C171.377 22.8488 171.207 22.9502 171.068 23.0844C170.928 23.2186 170.824 23.382 170.763 23.5615C170.702 23.7409 170.686 23.9314 170.716 24.1178C170.747 24.3042 170.822 24.4812 170.938 24.6348L173.5 31C173.991 30.767 175.382 30.9117 175.562 31C175.742 31.0883 175.992 30.1533 176.195 30.1532L182.5 31C182.706 30.4167 183.923 31.736 184.325 31.5C184.726 31.264 185 31 185.262 29.3243ZM167.256 23.8735C167.137 23.7292 166.985 23.6125 166.811 23.5323C166.638 23.4521 166.447 23.4105 166.255 23.4107H155.966C155.629 23.4107 155.306 23.538 155.067 23.7646C154.829 23.9912 154.695 24.2986 154.695 24.6191V26.5584C154.695 26.8559 154.81 27.1429 155.019 27.3645C155.228 27.5862 155.515 27.7268 155.826 27.7595L170.348 29.2941C170.473 29.3077 170.599 29.286 170.71 29.2316C170.822 29.1772 170.914 29.0926 170.975 28.9884C171.036 28.8843 171.064 28.7652 171.054 28.6463C171.044 28.5274 170.997 28.4139 170.92 28.3202L167.256 23.8735ZM197.459 18.8348C197.4 18.7552 197.322 18.6902 197.231 18.6454C197.141 18.6006 197.04 18.5773 196.938 18.5774H191.942C191.834 18.5774 191.727 18.6037 191.632 18.6539C191.538 18.7041 191.458 18.7765 191.401 18.8642C191.344 18.9518 191.312 19.0519 191.307 19.1548C191.302 19.2577 191.325 19.3601 191.374 19.4522L193.916 24.2856C193.968 24.3858 194.049 24.4701 194.15 24.529C194.25 24.5879 194.366 24.6191 194.484 24.6191H200.495C200.611 24.6192 200.725 24.5889 200.825 24.5316C200.924 24.4743 201.005 24.3921 201.059 24.294C201.113 24.1959 201.137 24.0857 201.129 23.9753C201.122 23.8649 201.082 23.7587 201.016 23.6681L197.459 18.8348Z" fill="black"/>
<path d="M162.496 47.256C160.661 47.256 159.029 46.872 157.6 46.104C156.192 45.336 155.072 44.2907 154.24 42.968C153.429 41.624 153.024 40.0987 153.024 38.392C153.024 36.664 153.429 35.1387 154.24 33.816C155.072 32.472 156.192 31.4267 157.6 30.68C159.029 29.912 160.661 29.528 162.496 29.528C164.309 29.528 165.931 29.912 167.36 30.68C168.789 31.4267 169.909 32.4613 170.72 33.784C171.531 35.1067 171.936 36.6427 171.936 38.392C171.936 40.0987 171.531 41.624 170.72 42.968C169.909 44.2907 168.789 45.336 167.36 46.104C165.931 46.872 164.309 47.256 162.496 47.256ZM162.496 43.16C163.328 43.16 164.075 42.968 164.736 42.584C165.397 42.2 165.92 41.656 166.304 40.952C166.688 40.2267 166.88 39.3733 166.88 38.392C166.88 37.3893 166.688 36.536 166.304 35.832C165.92 35.128 165.397 34.584 164.736 34.2C164.075 33.816 163.328 33.624 162.496 33.624C161.664 33.624 160.917 33.816 160.256 34.2C159.595 34.584 159.061 35.128 158.656 35.832C158.272 36.536 158.08 37.3893 158.08 38.392C158.08 39.3733 158.272 40.2267 158.656 40.952C159.061 41.656 159.595 42.2 160.256 42.584C160.917 42.968 161.664 43.16 162.496 43.16ZM196.84 47.256C195.005 47.256 193.373 46.872 191.944 46.104C190.536 45.336 189.416 44.2907 188.584 42.968C187.773 41.624 187.368 40.0987 187.368 38.392C187.368 36.664 187.773 35.1387 188.584 33.816C189.416 32.472 190.536 31.4267 191.944 30.68C193.373 29.912 195.005 29.528 196.84 29.528C198.653 29.528 200.274 29.912 201.704 30.68C203.133 31.4267 204.253 32.4613 205.064 33.784C205.874 35.1067 206.28 36.6427 206.28 38.392C206.28 40.0987 205.874 41.624 205.064 42.968C204.253 44.2907 203.133 45.336 201.704 46.104C200.274 46.872 198.653 47.256 196.84 47.256ZM196.84 43.16C197.672 43.16 198.418 42.968 199.08 42.584C199.741 42.2 200.264 41.656 200.648 40.952C201.032 40.2267 201.224 39.3733 201.224 38.392C201.224 37.3893 201.032 36.536 200.648 35.832C200.264 35.128 199.741 34.584 199.08 34.2C198.418 33.816 197.672 33.624 196.84 33.624C196.008 33.624 195.261 33.816 194.6 34.2C193.938 34.584 193.405 35.128 193 35.832C192.616 36.536 192.424 37.3893 192.424 38.392C192.424 39.3733 192.616 40.2267 193 40.952C193.405 41.656 193.938 42.2 194.6 42.584C195.261 42.968 196.008 43.16 196.84 43.16ZM209.617 47V29.784H214.385V34.648L213.713 33.24C214.225 32.024 215.046 31.1067 216.177 30.488C217.307 29.848 218.683 29.528 220.305 29.528V34.136C220.091 34.1147 219.899 34.104 219.729 34.104C219.558 34.0827 219.377 34.072 219.185 34.072C217.819 34.072 216.71 34.4667 215.857 35.256C215.025 36.024 214.609 37.2293 214.609 38.872V47H209.617Z" fill="black"/>
<path d="M182.313 47.256C180.286 47.256 178.707 46.744 177.577 45.72C176.446 44.6747 175.881 43.128 175.881 41.08V25.976H180.873V41.016C180.873 41.7413 181.065 42.3067 181.449 42.712C181.833 43.096 182.355 43.288 183.017 43.288C183.806 43.288 184.478 43.0747 185.033 42.648L186.377 46.168C185.865 46.5307 185.246 46.808 184.521 47C183.817 47.1707 183.081 47.256 182.313 47.256ZM173.225 34.008V30.168H185.161V34.008H173.225Z" fill="#35409C"/>
<path d="M124.125 47.625L124 26.5L136 44.9375L147.5 26.5L147.876 47.625" stroke="#3540A3" stroke-width="5" stroke-linecap="round" stroke-linejoin="round"/>
<path d="M4.42149 26.1965L0.235532 18.1259L5.79973 20.6853L7.17796 15.1742L11.3826 18.9943L14.5915 13.7776L15.5872 22.8145L4.42149 26.1965ZM16.2938 25.1473C16.4351 25.6139 16.2103 26.0216 15.7318 26.1665L6.16117 29.0654C5.68264 29.2103 5.26941 28.9959 5.12809 28.5293L4.89256 27.7517L16.0583 24.3697L16.2938 25.1473Z" fill="black"/>
<path d="M8.656 49V26.6H13.84V49H8.656ZM24.596 49.256C23.124 49.256 21.7053 49.0853 20.34 48.744C18.996 48.3813 17.9293 47.9333 17.14 47.4L18.804 43.816C19.5933 44.3067 20.5213 44.712 21.588 45.032C22.676 45.3307 23.7427 45.48 24.788 45.48C25.94 45.48 26.7507 45.3413 27.22 45.064C27.7107 44.7867 27.956 44.4027 27.956 43.912C27.956 43.5067 27.764 43.208 27.38 43.016C27.0173 42.8027 26.5267 42.6427 25.908 42.536C25.2893 42.4293 24.6067 42.3227 23.86 42.216C23.1347 42.1093 22.3987 41.9707 21.652 41.8C20.9053 41.608 20.2227 41.3307 19.604 40.968C18.9853 40.6053 18.484 40.1147 18.1 39.496C17.7373 38.8773 17.556 38.0773 17.556 37.096C17.556 36.008 17.8653 35.048 18.484 34.216C19.124 33.384 20.0413 32.7333 21.236 32.264C22.4307 31.7733 23.86 31.528 25.524 31.528C26.6973 31.528 27.892 31.656 29.108 31.912C30.324 32.168 31.3373 32.5413 32.148 33.032L30.484 36.584C29.652 36.0933 28.8093 35.7627 27.956 35.592C27.124 35.4 26.3133 35.304 25.524 35.304C24.4147 35.304 23.604 35.4533 23.092 35.752C22.58 36.0507 22.324 36.4347 22.324 36.904C22.324 37.3307 22.5053 37.6507 22.868 37.864C23.252 38.0773 23.7533 38.248 24.372 38.376C24.9907 38.504 25.6627 38.6213 26.388 38.728C27.1347 38.8133 27.8813 38.952 28.628 39.144C29.3747 39.336 30.0467 39.6133 30.644 39.976C31.2627 40.3173 31.764 40.7973 32.148 41.416C32.532 42.0133 32.724 42.8027 32.724 43.784C32.724 44.8507 32.404 45.8 31.764 46.632C31.124 47.4427 30.196 48.0827 28.98 48.552C27.7853 49.0213 26.324 49.256 24.596 49.256ZM42.844 49.256C40.8173 49.256 39.2387 48.744 38.108 47.72C36.9773 46.6747 36.412 45.128 36.412 43.08V27.976H41.404V43.016C41.404 43.7413 41.596 44.3067 41.98 44.712C42.364 45.096 42.8867 45.288 43.548 45.288C44.3373 45.288 45.0093 45.0747 45.564 44.648L46.908 48.168C46.396 48.5307 45.7773 48.808 45.052 49C44.348 49.1707 43.612 49.256 42.844 49.256ZM33.756 36.008V32.168H45.692V36.008H33.756ZM60.2703 49V45.64L59.9503 44.904V38.888C59.9503 37.8213 59.6196 36.9893 58.9583 36.392C58.3183 35.7947 57.3263 35.496 55.9823 35.496C55.0649 35.496 54.1583 35.6453 53.2623 35.944C52.3876 36.2213 51.6409 36.6053 51.0223 37.096L49.2303 33.608C50.1689 32.9467 51.2996 32.4347 52.6223 32.072C53.9449 31.7093 55.2889 31.528 56.6543 31.528C59.2783 31.528 61.3156 32.1467 62.7663 33.384C64.2169 34.6213 64.9423 36.552 64.9423 39.176V49H60.2703ZM55.0223 49.256C53.6783 49.256 52.5263 49.032 51.5663 48.584C50.6063 48.1147 49.8703 47.4853 49.3583 46.696C48.8463 45.9067 48.5903 45.0213 48.5903 44.04C48.5903 43.016 48.8356 42.12 49.3263 41.352C49.8383 40.584 50.6383 39.9867 51.7263 39.56C52.8143 39.112 54.2329 38.888 55.9823 38.888H60.5583V41.8H56.5263C55.3529 41.8 54.5423 41.992 54.0943 42.376C53.6676 42.76 53.4543 43.24 53.4543 43.816C53.4543 44.456 53.6996 44.968 54.1903 45.352C54.7023 45.7147 55.3956 45.896 56.2703 45.896C57.1023 45.896 57.8489 45.704 58.5103 45.32C59.1716 44.9147 59.6516 44.328 59.9503 43.56L60.7183 45.864C60.3556 46.9733 59.6943 47.816 58.7343 48.392C57.7743 48.968 56.5369 49.256 55.0223 49.256ZM79.9243 31.528C81.2896 31.528 82.5056 31.8053 83.5723 32.36C84.6603 32.8933 85.5136 33.7253 86.1323 34.856C86.7509 35.9653 87.0603 37.3947 87.0603 39.144V49H82.0683V39.912C82.0683 38.5253 81.7589 37.5013 81.1403 36.84C80.5429 36.1787 79.6896 35.848 78.5803 35.848C77.7909 35.848 77.0763 36.0187 76.4363 36.36C75.8176 36.68 75.3269 37.1813 74.9643 37.864C74.6229 38.5467 74.4523 39.4213 74.4523 40.488V49H69.4603V31.784H74.2283V36.552L73.3323 35.112C73.9509 33.96 74.8363 33.0747 75.9883 32.456C77.1403 31.8373 78.4523 31.528 79.9243 31.528ZM102.145 49V45.64L101.825 44.904V38.888C101.825 37.8213 101.495 36.9893 100.833 36.392C100.193 35.7947 99.2013 35.496 97.8573 35.496C96.9399 35.496 96.0333 35.6453 95.1373 35.944C94.2626 36.2213 93.5159 36.6053 92.8973 37.096L91.1053 33.608C92.0439 32.9467 93.1746 32.4347 94.4973 32.072C95.8199 31.7093 97.1639 31.528 98.5293 31.528C101.153 31.528 103.191 32.1467 104.641 33.384C106.092 34.6213 106.817 36.552 106.817 39.176V49H102.145ZM96.8973 49.256C95.5533 49.256 94.4013 49.032 93.4413 48.584C92.4813 48.1147 91.7453 47.4853 91.2333 46.696C90.7213 45.9067 90.4653 45.0213 90.4653 44.04C90.4653 43.016 90.7106 42.12 91.2013 41.352C91.7133 40.584 92.5133 39.9867 93.6013 39.56C94.6893 39.112 96.1079 38.888 97.8573 38.888H102.433V41.8H98.4013C97.2279 41.8 96.4173 41.992 95.9693 42.376C95.5426 42.76 95.3293 43.24 95.3293 43.816C95.3293 44.456 95.5746 44.968 96.0653 45.352C96.5773 45.7147 97.2706 45.896 98.1453 45.896C98.9773 45.896 99.7239 45.704 100.385 45.32C101.047 44.9147 101.527 44.328 101.825 43.56L102.593 45.864C102.231 46.9733 101.569 47.816 100.609 48.392C99.6493 48.968 98.4119 49.256 96.8973 49.256Z" fill="black"/>
</svg>
